<svg version="1.1" id="_x32_" xmlns="http://www.w3.org/2000/svg" x="0" y="0" viewBox="0 0 512 512" style="width:64px;height:64px" xml:space="preserve" opacity="1"><g><path d="M496.123 167.12a252.89 252.89 0 00-15.992-34.864c-11.674-21.088-26.21-40.373-43.13-57.261-.413-.413-.754-.762-1.167-1.175h-.028c-.48-.476-.937-.936-1.445-1.404l-.035-.024a108.316 108.316 0 00-4.457-4.223C384.25 25.859 323.069.002 255.998.002c-38.948 0-75.912 8.722-108.972 24.302a237.243 237.243 0 00-6.754 3.31 256.253 256.253 0 00-65.281 47.381c-27.793 27.761-49.214 61.951-61.924 100.11a235.826 235.826 0 00-1.861 5.817l-.076.215a182.174 182.174 0 00-1.174 4.032c-.944 3.23-1.806 6.46-2.592 9.754-.31 1.135-.563 2.278-.818 3.437C2.262 216.882 0 236.183 0 256c0 70.627 28.682 134.73 74.991 181.007 26.06 26.048 57.75 46.531 93.075 59.483a95.96 95.96 0 003.36 1.182 247.593 247.593 0 0020.659 6.27c1.222.31 2.468.619 3.718.889 19.314 4.69 39.488 7.166 60.194 7.166 70.634 0 134.725-28.674 181.003-74.991a250.43 250.43 0 0023.559-27.127C492.834 367.055 512 313.706 512 256c0-31.229-5.615-61.182-15.877-88.88zM94.789 417.221C53.512 375.897 28.015 319 28.015 256c0-11.643.87-23.056 2.552-34.206 7.766 5.429 21.932 13.024 22.111 13.064.531.167 1.142.254 1.881.254 1.147 0 2.524-.206 3.948-.436 1.504-.222 3.036-.444 4.254-.444.381 0 .742.016 1.028.071.527.238 1.393 2.238 1.849 3.31.945 2.159 1.913 4.396 3.905 5.373 1.849.936 5.849 1.421 11.71 2.047 1.941.215 3.925.453 4.944.619.381.698.845 2.405 1.151 3.596.893 3.349 1.778 6.77 4.329 8.294 2.116 1.294 9.016 7.857 12.866 11.722a2.58 2.58 0 001.809.746c.425 0 .889-.103 1.27-.357.306-.175 7.027-4.111 9.373-5.579.488.158 1.353.706 2.139 1.381.123 3.69.591 15.897.614 18.365-.432 1.532-5.555 6.856-11.206 11.634-.559.468-.9 1.127-.92 1.833-.024.698-.636 16.817 0 23.294.666 6.563 11.436 19.389 14.333 22.722 1.226 3.326 4.567 12.175 5.842 14.072 1.273 1.912 14.19 11.603 22.495 17.738v38.19c0 4.278 1.671 7.071 3.004 9.341.818 1.349 1.452 2.413 1.452 3.381v26.746c0 3.477 1.012 6.326 2.416 8.738-23.253-11.209-44.296-26.24-62.375-44.288zm358.624-255.466c-4.464-3.174-11.465-4.452-11.465-4.452l-5.099-.651c-2.544-5.088-1.27-16.547-10.182-14.008-8.921 2.555-38.214 7.642-44.583 8.92-6.361 1.27-14.008 11.452-19.099 19.096-5.099 7.642-19.106 31.848-21.654 35.666-2.544 3.817-3.822 28.024-3.822 34.381 0 6.381 28.028 33.127 36.936 34.396 8.917 1.27 33.11-5.095 39.484-6.365 6.369-1.286 10.186 7.635 15.282 7.635 5.095 0 11.464 2.547 6.368 10.206-5.095 7.619-5.095 11.444 0 16.54 5.096 5.103 15.282 24.206 8.913 39.492-6.369 15.277-1.265 22.912 2.552 29.285.73 1.222 1.5 2.92 2.318 4.92a231.404 231.404 0 01-32.151 40.404c-41.321 41.262-98.218 66.762-161.213 66.762a229.31 229.31 0 01-60.726-8.167c.08-.318.155-.674.21-1.04.321-2.388-.666-4.166-1.686-5.42 1.429-.683 2.572-1.778 3.385-3.239 1.23-2.238 1.432-4.984 1.23-7.151l1.238.024c3.107 0 6.679-.286 9.428-2.246 4.504-3.206 4.588-9.984 3.742-14.69.329.143.666.301.972.396.35.143.735.175 1.123.175 4.076 0 8.584-7.326 9.798-12.175.464-1.778 2.167-5.714 3.83-9.548 3.893-9.04 6.234-14.722 5.782-17.547.067-1.778 7.052-7.342 13.261-8.588 7.366-1.468 9.988-4.174 12.766-13.23 2.651-8.595 3.953-22.912 3.266-29.032-.202-2.007 4.142-8.119 7.055-12.166 4.735-6.682 7.619-10.952 7.619-14.286 0-7.698-6.475-12.889-11.341-16.134-4.837-3.23-13.321-3.976-18.952-4.445-1.575-.135-2.953-.254-3.592-.388-.583-.12-1.603-1.23-2.417-2.088-1.754-1.889-4.158-4.46-7.98-4.944a10.381 10.381 0 00-1.317-.072c-2.428 0-4.584.762-6.698 1.5-1.885.683-3.671 1.334-5.448 1.334a6.257 6.257 0 01-1.556-.191c-.944-.198-1.306-.46-1.378-.46.02-.428.838-1.865 2.845-3.199 1.941-1.293 3.778-4.15 1.663-10.627-1.503-4.666-4.285-9.079-5.396-10.73-4-6.007-11.29-6.007-13.683-6.007-2.191 0-4.333.214-6.528.404l-.476.016c-2.219 0-3.516-1.952-6.04-6.079-1.429-2.342-3.035-4.961-5.266-7.659-4.849-5.81-11.618-6.58-17.631-6.58-.794 0-1.556 0-2.298.032-.634 0-1.25.016-1.829.016-.814 0-1.556-.016-2.198-.103-2.21-.278-5.5-1.96-8.401-3.452-3.182-1.635-6.19-3.191-8.738-3.548l-.635-.047c-3.643 0-7.766 4.23-13.651 10.643-1.46 1.587-3.341 3.642-4.337 4.507-.198-.23-.457-.523-.655-.778-1.071-1.365-2.527-3.158-5.103-4.031a5.372 5.372 0 00-1.678-.286c-2.012 0-3.512 1.159-4.818 2.158-1.163.873-2.159 1.612-3.362 1.612-.706 0-1.524-.246-2.468-.754-3.512-1.92-2.346-9.278-1.425-15.183.436-2.714.845-5.27.845-7.421 0-4.888-2.889-5.42-4.103-5.42-1.174 0-2.321.406-3.646.929-1.5.54-3.235 1.182-5.044 1.182a7.05 7.05 0 01-2.314-.388c-1.452-.476-2.095-.984-2.194-1.286-.357-.977 1.528-3.85 2.9-5.968.636-.969 1.302-1.985 1.937-3.024 2.655-4.42 4.032-7.682 2.623-10.151-.87-1.492-2.465-2.27-4.762-2.27-.885 0-1.88.103-3.055.333-.866.158-1.683.238-2.497.238-1.094 0-1.936-.151-2.674-.278-.69-.11-1.222-.214-1.686-.214-3.512 0-3.944 3.491-4.127 5-.655 5.301-3.838 8-9.417 8-.413 0-.809-.024-1.246-.048-5.937-.381-8.464-4.595-8.464-14.016 0-4.095.643-5.174 2.548-8.388a78.155 78.155 0 003.543-6.381c3.155-6.294 5.655-7.468 8.837-8.936.94-.445 1.912-.896 2.909-1.469.762-.46 1.397-.658 1.853-.658.337 0 .687.135 1.302.341.845.317 1.984.722 3.492.722.432 0 .888-.015 1.396-.087 4.687-.801 5.679-3.548 6.548-5.968.108-.254.202-.524.338-.865.25.087.504.15.762.198 2.064.595 5.504 1.556 11.055 1.556 1.833 0 3.159.023 4.127.08-.69 3.492-.666 10.222 6.234 18.087 2.27 2.571 4.262 3.769 6.294 3.769 6.528 0 7.08-11 7.08-23.238 0-7.396 2.805-9.42 11.107-15.349l.54-.397c4.508-3.198 7.187-7 9.778-10.674 2.806-3.96 5.448-7.707 10.42-10.802 4.666-2.944 11.948-6.175 18.98-9.334 8.123-3.611 15.786-7.031 19.385-9.904 4.127-3.317 3.309-8.508 2.643-12.722-.866-5.414-.611-6.532 1.556-7.176 3.568-1.008 7.389-1.602 11.44-2.238 5.802-.913 11.818-1.857 17.988-4.182 6.405-2.388 7.889-5.809 8.016-8.278.234-4.174-3.366-7.516-6.516-9.095-1.378-.691-1.536-4.072-1.635-7.072-.151-3.833-.301-7.777-2.778-10.222-1.397-1.428-3.186-2.143-5.25-2.143-2.698 0-5.6 1.19-8.961 2.611-2.222.912-4.714 1.928-7.364 2.69-.286.08-.536.135-.738.135-.996 0-1.707-2.071-2.592-4.976-1.361-4.294-3.369-10.722-10.424-10.722-.79 0-1.659.072-2.572.254-8.992 1.801-11.107 11.444-12.631 18.491-.54 2.532-1.377 6.373-2.119 6.881-5.298 0-7.004 3.381-8.662 6.666-1.048 2.096-2.238 4.461-4.56 6.778-1.425 1.429-2.413 1.818-2.698 1.85-.432-.405-1.092-3.508 1.682-9.048 1.174-2.325 2.496-5.714.866-8.484-1.913-3.238-6.44-3.452-11.667-3.642-2.087-.103-4.254-.183-6.42-.46-4.131-.516-5.218-1.564-5.27-1.786 0-.103.052-.818 1.175-2.198 34.055-20.246 73.836-31.888 116.38-31.888 51.586 0 99.082 17.103 137.292 45.968-.595 2.389-2.527 5.865-4.202 8.794-2.543 4.468-1.269 7.016-1.269 7.016s12.103-1.913 14.643-3.182c.896-.444 1.706-1.762 2.302-3.357a101.85 101.85 0 013.809 3.357c-3.028 2.745-6.281 5.626-7.381 6.372-1.905 1.262-8.274 3.182-10.825 4.444-2.548 1.278 7.638 5.739 7.638 7.643 0 1.913 0 10.826-3.821 11.452-3.817.643-21.643.643-21.643.643s-5.738 20.374-4.464 22.286c1.274 1.92 9.552 6.381 14.65 5.746 5.092-.658 16.559-6.365 16.559-6.365l5.088-11.46 10.186-10.85s7.643 3.182 10.194.643c2.544-2.54 7.642-5.079 7.642-5.079s5.096 9.539 8.278 10.818l.615.278.016.039a205.08 205.08 0 0110.318 15.659l.032.04v.024l.047.112c.175.373.358.706.588.921 5.218 8.841 9.885 18.031 13.904 27.547-4.105-.268-8.919-3.022-12.78-5.768z" fill="#4b4b4b"/></g></svg>